<svg width="32" height="32" viewBox="0 0 32 32" fill="none" xmlns="http://www.w3.org/2000/svg">
<path d="M15.998 32C7.18105 32 -0.00195312 24.817 -0.00195312 16C-0.00195312 7.183 7.18105 0 15.998 0C24.815 0 31.998 7.183 31.998 16C31.998 24.817 24.815 32 15.998 32ZM29.493 18.188C29.025 18.041 25.264 16.917 20.977 17.604C22.764 22.516 23.493 26.516 23.634 27.349C25.1843 26.3029 26.504 24.9504 27.5116 23.3749C28.5193 21.7993 29.1936 20.0341 29.493 18.188ZM21.337 28.599C21.134 27.402 20.337 23.224 18.42 18.24L18.332 18.265C10.613 20.953 7.85305 26.302 7.61305 26.802C10.0055 28.6766 12.9586 29.6927 15.998 29.687C17.889 29.687 19.691 29.302 21.331 28.603L21.337 28.599ZM5.84705 25.161C6.15405 24.625 9.90405 18.421 16.956 16.14C17.133 16.079 17.315 16.027 17.492 15.979C17.1453 15.1959 16.7754 14.4233 16.383 13.662C9.56005 15.698 2.94005 15.615 2.34205 15.599L2.33705 16.016C2.33705 19.527 3.66505 22.735 5.84805 25.156L5.84705 25.161ZM2.61805 13.219C3.23305 13.23 8.86205 13.255 15.253 11.558C13.7063 8.83381 12.0149 6.19437 10.186 3.651C8.27264 4.55355 6.59389 5.88639 5.28103 7.54534C3.96816 9.20429 3.05675 11.1444 2.61805 13.214V13.219ZM12.801 2.735C13.176 3.246 15.66 6.62 17.894 10.735C22.753 8.918 24.815 6.151 25.061 5.803C22.5677 3.57694 19.3405 2.34919 15.998 2.355C14.921 2.35311 13.8476 2.48069 12.801 2.735ZM26.577 7.38C26.29 7.765 23.998 10.703 18.946 12.765C19.263 13.421 19.571 14.078 19.853 14.749C19.962 14.989 20.05 15.229 20.144 15.453C24.692 14.88 29.212 15.802 29.665 15.896C29.6455 12.7898 28.5584 9.78475 26.586 7.385L26.577 7.38Z" fill="#45577B"/>
</svg>
